<?xml version="1.0" encoding="utf-8"?>
<!-- Generator: Adobe Illustrator 16.0.3, SVG Export Plug-In . SVG Version: 6.00 Build 0)  -->
<!DOCTYPE svg PUBLIC "-//W3C//DTD SVG 1.1//EN" "http://www.w3.org/Graphics/SVG/1.1/DTD/svg11.dtd">
<svg version="1.1"
	 id="svg2" xmlns:sodipodi="http://sodipodi.sourceforge.net/DTD/sodipodi-0.dtd" xmlns:rdf="http://www.w3.org/1999/02/22-rdf-syntax-ns#" xmlns:cc="http://creativecommons.org/ns#" xmlns:inkscape="http://www.inkscape.org/namespaces/inkscape" xmlns:svg="http://www.w3.org/2000/svg" xmlns:dc="http://purl.org/dc/elements/1.1/" sodipodi:docname="Google_Chrome_2011_Logo SVG.svg" inkscape:version="0.48.1 r9760"
	 xmlns="http://www.w3.org/2000/svg" xmlns:xlink="http://www.w3.org/1999/xlink" x="0px" y="0px" width="30px" height="30px"
	 viewBox="0 0 256 256" enable-background="new 0 0 256 256" xml:space="preserve">
<sodipodi:namedview  inkscape:pageshadow="2" inkscape:window-height="480" inkscape:pageopacity="0" inkscape:window-y="0" inkscape:window-x="0" inkscape:window-width="640" inkscape:window-maximized="0" inkscape:current-layer="svg2" gridtolerance="10" showgrid="false" pagecolor="#ffffff" guidetolerance="10" inkscape:cx="128" inkscape:zoom="1.140625" objecttolerance="10" inkscape:cy="128" bordercolor="#666666" borderopacity="1" id="namedview67">
	</sodipodi:namedview>
<circle id="circle47" fill="#FFFFFF" cx="128" cy="128" r="110"/>
<path id="path49" fill-opacity="0.1" d="M198,148c0-38.66-31.34-70-70-70s-70,31.34-70,70h20c0-27.614,22.386-50,50-50
	s50,22.386,50,50"/>
<circle id="circle51" fill-opacity="0.1" cx="133" cy="142" r="38"/>
<linearGradient id="circle53_1_" gradientUnits="userSpaceOnUse" x1="-117.4341" y1="151.4365" x2="-117.4341" y2="150.4365" gradientTransform="matrix(82 0 0 -82 9757.5625 12504.8125)">
	<stop  offset="0" style="stop-color:#EDC42E"/>
	<stop  offset="1" style="stop-color:#CB8F00"/>
</linearGradient>
<circle id="circle53" fill="url(#circle53_1_)" cx="128" cy="128" r="41"/>
<linearGradient id="path55_1_" gradientUnits="userSpaceOnUse" x1="302.459" y1="-31.6616" x2="302.459" y2="-122.6613" gradientTransform="matrix(1 0 0 -1 -170.96 -15.6602)">
	<stop  offset="0" style="stop-color:#E2A800"/>
	<stop  offset="1" style="stop-color:#C08600"/>
</linearGradient>
<path id="path55" fill="url(#path55_1_)" d="M228,78C200.47,22.608,133.248,0.022,77.856,27.553C60.585,36.137,45.823,49.036,35,65
	l45,78c-8.287-26.341,6.349-54.413,32.69-62.7c4.633-1.458,9.454-2.232,14.31-2.3"/>
<linearGradient id="path57_1_" gradientUnits="userSpaceOnUse" x1="214.2285" y1="-223.2705" x2="260.2282" y2="-147.2711" gradientTransform="matrix(1 0 0 -1 -170.96 -15.6602)">
	<stop  offset="0" style="stop-color:#C28800"/>
	<stop  offset="1" style="stop-color:#E0A600"/>
</linearGradient>
<path id="path57" fill="url(#path57_1_)" d="M35,65C0.557,116.379,14.287,185.952,65.666,220.395
	C81.563,231.052,99.924,237.457,119,239l47-80c-17.573,21.301-49.087,24.322-70.388,6.749C88.377,159.78,82.967,151.897,80,143"/>
<linearGradient id="path59_1_" gradientUnits="userSpaceOnUse" x1="368.3281" y1="-231.3555" x2="319.3279" y2="-113.355" gradientTransform="matrix(1 0 0 -1 -170.96 -15.6602)">
	<stop  offset="0" style="stop-color:#E4B022"/>
	<stop  offset="0.3" style="stop-color:#ECC21B"/>
</linearGradient>
<path id="path59" fill="url(#path59_1_)" d="M119,239c61.68,4.663,115.461-41.559,120.125-103.238
	C240.629,115.861,236.789,95.919,228,78H127c27.613,0.127,49.896,22.615,49.77,50.229c-0.051,11.172-3.843,22.005-10.77,30.771"/>
<linearGradient id="path61_1_" gradientUnits="userSpaceOnUse" x1="229.46" y1="-155.6597" x2="229.46" y2="-75.6602" gradientTransform="matrix(1 0 0 -1 -170.96 -15.6602)">
	<stop  offset="0" style="stop-color:#000000;stop-opacity:0.15"/>
	<stop  offset="0.3" style="stop-color:#000000;stop-opacity:0.06"/>
	<stop  offset="1" style="stop-color:#000000;stop-opacity:0.03"/>
</linearGradient>
<path id="path61" fill="url(#path61_1_)" d="M35,65l45,78c-3.333-11.219-2.625-23.25,2-34L37,62"/>
<linearGradient id="path63_1_" gradientUnits="userSpaceOnUse" x1="339.8809" y1="-181.4937" x2="284.8815" y2="-237.4931" gradientTransform="matrix(1 0 0 -1 -170.96 -15.6602)">
	<stop  offset="0" style="stop-color:#000000;stop-opacity:0.15"/>
	<stop  offset="0.3" style="stop-color:#000000;stop-opacity:0.06"/>
	<stop  offset="1" style="stop-color:#000000;stop-opacity:0.03"/>
</linearGradient>
<path id="path63" fill="url(#path63_1_)" d="M119,239l47-80c-7.415,8.844-17.661,14.85-29,17l-20,63"/>
<linearGradient id="path65_1_" gradientUnits="userSpaceOnUse" x1="339.0859" y1="-197.6089" x2="347.0859" y2="-118.6089" gradientTransform="matrix(1 0 0 -1 -170.96 -15.6602)">
	<stop  offset="0" style="stop-color:#000000;stop-opacity:0.15"/>
	<stop  offset="0.3" style="stop-color:#000000;stop-opacity:0.06"/>
	<stop  offset="1" style="stop-color:#000000;stop-opacity:0.03"/>
</linearGradient>
<path id="path65" fill="url(#path65_1_)" d="M228,78H127c15.213,0.07,29.567,7.063,39,19l64-16"/>
</svg>
